<?xml version="1.0" encoding="utf-8" standalone="no"?>
<!DOCTYPE svg PUBLIC "-//W3C//DTD SVG 1.1//EN"
  "http://www.w3.org/Graphics/SVG/1.1/DTD/svg11.dtd">
<svg height="345.6pt" version="1.1" viewBox="0 0 460.8 345.6" width="460.8pt" xmlns="http://www.w3.org/2000/svg" xmlns:xlink="http://www.w3.org/1999/xlink">
 <metadata>
  <rdf:RDF xmlns:cc="http://creativecommons.org/ns#" xmlns:dc="http://purl.org/dc/elements/1.1/" xmlns:rdf="http://www.w3.org/1999/02/22-rdf-syntax-ns#">
   <cc:Work>
    <dc:type rdf:resource="http://purl.org/dc/dcmitype/StillImage"/>
    <dc:date>2021-06-06T22:51:08.363615</dc:date>
    <dc:format>image/svg+xml</dc:format>
    <dc:creator>
     <cc:Agent>
      <dc:title>Matplotlib v3.4.2, https://matplotlib.org/</dc:title>
     </cc:Agent>
    </dc:creator>
   </cc:Work>
  </rdf:RDF>
 </metadata>
 <defs>
  <style type="text/css">*{stroke-linecap:butt;stroke-linejoin:round;}</style>
 </defs>
 <g id="figure_1">
  <g id="patch_1">
   <path d="M 0 345.6 
L 460.8 345.6 
L 460.8 0 
L 0 0 
z
" style="fill:#ffffff;"/>
  </g>
  <g id="axes_1">
   <g id="patch_2">
    <path d="M 57.6 307.584 
L 414.72 307.584 
L 414.72 41.472 
L 57.6 41.472 
z
" style="fill:#ffffff;"/>
   </g>
   <g id="matplotlib.axis_1">
    <g id="xtick_1">
     <g id="line2d_1">
      <defs>
       <path d="M 0 0 
L 0 3.5 
" id="mdcc3271776" style="stroke:#000000;stroke-width:0.8;"/>
      </defs>
      <g>
       <use style="stroke:#000000;stroke-width:0.8;" x="146.88" xlink:href="#mdcc3271776" y="307.584"/>
      </g>
     </g>
     <g id="text_1">
      <!-- 1 -->
      <g transform="translate(143.69875 322.182437)scale(0.1 -0.1)">
       <defs>
        <path d="M 794 531 
L 1825 531 
L 1825 4091 
L 703 3866 
L 703 4441 
L 1819 4666 
L 2450 4666 
L 2450 531 
L 3481 531 
L 3481 0 
L 794 0 
L 794 531 
z
" id="DejaVuSans-31" transform="scale(0.015625)"/>
       </defs>
       <use xlink:href="#DejaVuSans-31"/>
      </g>
     </g>
    </g>
    <g id="xtick_2">
     <g id="line2d_2">
      <g>
       <use style="stroke:#000000;stroke-width:0.8;" x="325.44" xlink:href="#mdcc3271776" y="307.584"/>
      </g>
     </g>
     <g id="text_2">
      <!-- 2 -->
      <g transform="translate(322.25875 322.182437)scale(0.1 -0.1)">
       <defs>
        <path d="M 1228 531 
L 3431 531 
L 3431 0 
L 469 0 
L 469 531 
Q 828 903 1448 1529 
Q 2069 2156 2228 2338 
Q 2531 2678 2651 2914 
Q 2772 3150 2772 3378 
Q 2772 3750 2511 3984 
Q 2250 4219 1831 4219 
Q 1534 4219 1204 4116 
Q 875 4013 500 3803 
L 500 4441 
Q 881 4594 1212 4672 
Q 1544 4750 1819 4750 
Q 2544 4750 2975 4387 
Q 3406 4025 3406 3419 
Q 3406 3131 3298 2873 
Q 3191 2616 2906 2266 
Q 2828 2175 2409 1742 
Q 1991 1309 1228 531 
z
" id="DejaVuSans-32" transform="scale(0.015625)"/>
       </defs>
       <use xlink:href="#DejaVuSans-32"/>
      </g>
     </g>
    </g>
   </g>
   <g id="matplotlib.axis_2">
    <g id="ytick_1">
     <g id="line2d_3">
      <defs>
       <path d="M 0 0 
L -3.5 0 
" id="m926c443ed7" style="stroke:#000000;stroke-width:0.8;"/>
      </defs>
      <g>
       <use style="stroke:#000000;stroke-width:0.8;" x="57.6" xlink:href="#m926c443ed7" y="283.198923"/>
      </g>
     </g>
     <g id="text_3">
      <!-- 40 -->
      <g transform="translate(37.875 286.998142)scale(0.1 -0.1)">
       <defs>
        <path d="M 2419 4116 
L 825 1625 
L 2419 1625 
L 2419 4116 
z
M 2253 4666 
L 3047 4666 
L 3047 1625 
L 3713 1625 
L 3713 1100 
L 3047 1100 
L 3047 0 
L 2419 0 
L 2419 1100 
L 313 1100 
L 313 1709 
L 2253 4666 
z
" id="DejaVuSans-34" transform="scale(0.015625)"/>
        <path d="M 2034 4250 
Q 1547 4250 1301 3770 
Q 1056 3291 1056 2328 
Q 1056 1369 1301 889 
Q 1547 409 2034 409 
Q 2525 409 2770 889 
Q 3016 1369 3016 2328 
Q 3016 3291 2770 3770 
Q 2525 4250 2034 4250 
z
M 2034 4750 
Q 2819 4750 3233 4129 
Q 3647 3509 3647 2328 
Q 3647 1150 3233 529 
Q 2819 -91 2034 -91 
Q 1250 -91 836 529 
Q 422 1150 422 2328 
Q 422 3509 836 4129 
Q 1250 4750 2034 4750 
z
" id="DejaVuSans-30" transform="scale(0.015625)"/>
       </defs>
       <use xlink:href="#DejaVuSans-34"/>
       <use x="63.623047" xlink:href="#DejaVuSans-30"/>
      </g>
     </g>
    </g>
    <g id="ytick_2">
     <g id="line2d_4">
      <g>
       <use style="stroke:#000000;stroke-width:0.8;" x="57.6" xlink:href="#m926c443ed7" y="230.850179"/>
      </g>
     </g>
     <g id="text_4">
      <!-- 50 -->
      <g transform="translate(37.875 234.649398)scale(0.1 -0.1)">
       <defs>
        <path d="M 691 4666 
L 3169 4666 
L 3169 4134 
L 1269 4134 
L 1269 2991 
Q 1406 3038 1543 3061 
Q 1681 3084 1819 3084 
Q 2600 3084 3056 2656 
Q 3513 2228 3513 1497 
Q 3513 744 3044 326 
Q 2575 -91 1722 -91 
Q 1428 -91 1123 -41 
Q 819 9 494 109 
L 494 744 
Q 775 591 1075 516 
Q 1375 441 1709 441 
Q 2250 441 2565 725 
Q 2881 1009 2881 1497 
Q 2881 1984 2565 2268 
Q 2250 2553 1709 2553 
Q 1456 2553 1204 2497 
Q 953 2441 691 2322 
L 691 4666 
z
" id="DejaVuSans-35" transform="scale(0.015625)"/>
       </defs>
       <use xlink:href="#DejaVuSans-35"/>
       <use x="63.623047" xlink:href="#DejaVuSans-30"/>
      </g>
     </g>
    </g>
    <g id="ytick_3">
     <g id="line2d_5">
      <g>
       <use style="stroke:#000000;stroke-width:0.8;" x="57.6" xlink:href="#m926c443ed7" y="178.501436"/>
      </g>
     </g>
     <g id="text_5">
      <!-- 60 -->
      <g transform="translate(37.875 182.300655)scale(0.1 -0.1)">
       <defs>
        <path d="M 2113 2584 
Q 1688 2584 1439 2293 
Q 1191 2003 1191 1497 
Q 1191 994 1439 701 
Q 1688 409 2113 409 
Q 2538 409 2786 701 
Q 3034 994 3034 1497 
Q 3034 2003 2786 2293 
Q 2538 2584 2113 2584 
z
M 3366 4563 
L 3366 3988 
Q 3128 4100 2886 4159 
Q 2644 4219 2406 4219 
Q 1781 4219 1451 3797 
Q 1122 3375 1075 2522 
Q 1259 2794 1537 2939 
Q 1816 3084 2150 3084 
Q 2853 3084 3261 2657 
Q 3669 2231 3669 1497 
Q 3669 778 3244 343 
Q 2819 -91 2113 -91 
Q 1303 -91 875 529 
Q 447 1150 447 2328 
Q 447 3434 972 4092 
Q 1497 4750 2381 4750 
Q 2619 4750 2861 4703 
Q 3103 4656 3366 4563 
z
" id="DejaVuSans-36" transform="scale(0.015625)"/>
       </defs>
       <use xlink:href="#DejaVuSans-36"/>
       <use x="63.623047" xlink:href="#DejaVuSans-30"/>
      </g>
     </g>
    </g>
    <g id="ytick_4">
     <g id="line2d_6">
      <g>
       <use style="stroke:#000000;stroke-width:0.8;" x="57.6" xlink:href="#m926c443ed7" y="126.152693"/>
      </g>
     </g>
     <g id="text_6">
      <!-- 70 -->
      <g transform="translate(37.875 129.951911)scale(0.1 -0.1)">
       <defs>
        <path d="M 525 4666 
L 3525 4666 
L 3525 4397 
L 1831 0 
L 1172 0 
L 2766 4134 
L 525 4134 
L 525 4666 
z
" id="DejaVuSans-37" transform="scale(0.015625)"/>
       </defs>
       <use xlink:href="#DejaVuSans-37"/>
       <use x="63.623047" xlink:href="#DejaVuSans-30"/>
      </g>
     </g>
    </g>
    <g id="ytick_5">
     <g id="line2d_7">
      <g>
       <use style="stroke:#000000;stroke-width:0.8;" x="57.6" xlink:href="#m926c443ed7" y="73.803949"/>
      </g>
     </g>
     <g id="text_7">
      <!-- 80 -->
      <g transform="translate(37.875 77.603168)scale(0.1 -0.1)">
       <defs>
        <path d="M 2034 2216 
Q 1584 2216 1326 1975 
Q 1069 1734 1069 1313 
Q 1069 891 1326 650 
Q 1584 409 2034 409 
Q 2484 409 2743 651 
Q 3003 894 3003 1313 
Q 3003 1734 2745 1975 
Q 2488 2216 2034 2216 
z
M 1403 2484 
Q 997 2584 770 2862 
Q 544 3141 544 3541 
Q 544 4100 942 4425 
Q 1341 4750 2034 4750 
Q 2731 4750 3128 4425 
Q 3525 4100 3525 3541 
Q 3525 3141 3298 2862 
Q 3072 2584 2669 2484 
Q 3125 2378 3379 2068 
Q 3634 1759 3634 1313 
Q 3634 634 3220 271 
Q 2806 -91 2034 -91 
Q 1263 -91 848 271 
Q 434 634 434 1313 
Q 434 1759 690 2068 
Q 947 2378 1403 2484 
z
M 1172 3481 
Q 1172 3119 1398 2916 
Q 1625 2713 2034 2713 
Q 2441 2713 2670 2916 
Q 2900 3119 2900 3481 
Q 2900 3844 2670 4047 
Q 2441 4250 2034 4250 
Q 1625 4250 1398 4047 
Q 1172 3844 1172 3481 
z
" id="DejaVuSans-38" transform="scale(0.015625)"/>
       </defs>
       <use xlink:href="#DejaVuSans-38"/>
       <use x="63.623047" xlink:href="#DejaVuSans-30"/>
      </g>
     </g>
    </g>
   </g>
   <g id="line2d_8">
    <path clip-path="url(#pb89725f171)" d="M 133.488 242.760995 
L 160.272 242.760995 
L 160.272 153.131638 
L 133.488 153.131638 
L 133.488 242.760995 
" style="fill:none;stroke:#000000;stroke-linecap:square;"/>
   </g>
   <g id="line2d_9">
    <path clip-path="url(#pb89725f171)" d="M 146.88 242.760995 
L 146.88 293.878729 
" style="fill:none;stroke:#000000;stroke-linecap:square;"/>
   </g>
   <g id="line2d_10">
    <path clip-path="url(#pb89725f171)" d="M 146.88 153.131638 
L 146.88 53.568 
" style="fill:none;stroke:#000000;stroke-linecap:square;"/>
   </g>
   <g id="line2d_11">
    <path clip-path="url(#pb89725f171)" d="M 140.184 293.878729 
L 153.576 293.878729 
" style="fill:none;stroke:#000000;stroke-linecap:square;"/>
   </g>
   <g id="line2d_12">
    <path clip-path="url(#pb89725f171)" d="M 140.184 53.568 
L 153.576 53.568 
" style="fill:none;stroke:#000000;stroke-linecap:square;"/>
   </g>
   <g id="line2d_13"/>
   <g id="line2d_14">
    <path clip-path="url(#pb89725f171)" d="M 312.048 223.941353 
L 338.832 223.941353 
L 338.832 153.791125 
L 312.048 153.791125 
L 312.048 223.941353 
" style="fill:none;stroke:#000000;stroke-linecap:square;"/>
   </g>
   <g id="line2d_15">
    <path clip-path="url(#pb89725f171)" d="M 325.44 223.941353 
L 325.44 295.488 
" style="fill:none;stroke:#000000;stroke-linecap:square;"/>
   </g>
   <g id="line2d_16">
    <path clip-path="url(#pb89725f171)" d="M 325.44 153.791125 
L 325.44 97.78781 
" style="fill:none;stroke:#000000;stroke-linecap:square;"/>
   </g>
   <g id="line2d_17">
    <path clip-path="url(#pb89725f171)" d="M 318.744 295.488 
L 332.136 295.488 
" style="fill:none;stroke:#000000;stroke-linecap:square;"/>
   </g>
   <g id="line2d_18">
    <path clip-path="url(#pb89725f171)" d="M 318.744 97.78781 
L 332.136 97.78781 
" style="fill:none;stroke:#000000;stroke-linecap:square;"/>
   </g>
   <g id="line2d_19"/>
   <g id="line2d_20">
    <path clip-path="url(#pb89725f171)" d="M 182.592 245.897836 
L 289.728 226.40537 
" style="fill:none;stroke:#000000;stroke-linecap:square;stroke-opacity:0.5;stroke-width:1.5;"/>
   </g>
   <g id="line2d_21">
    <path clip-path="url(#pb89725f171)" d="M 182.592 131.19825 
L 289.728 189.797649 
" style="fill:none;stroke:#000000;stroke-linecap:square;stroke-opacity:0.5;stroke-width:1.5;"/>
   </g>
   <g id="line2d_22">
    <path clip-path="url(#pb89725f171)" d="M 182.592 257.534222 
L 289.728 221.930435 
" style="fill:none;stroke:#000000;stroke-linecap:square;stroke-opacity:0.5;stroke-width:1.5;"/>
   </g>
   <g id="line2d_23">
    <path clip-path="url(#pb89725f171)" d="M 182.592 196.897816 
L 289.728 287.547937 
" style="fill:none;stroke:#000000;stroke-linecap:square;stroke-opacity:0.5;stroke-width:1.5;"/>
   </g>
   <g id="line2d_24">
    <path clip-path="url(#pb89725f171)" d="M 182.592 293.878729 
L 289.728 153.543612 
" style="fill:none;stroke:#000000;stroke-linecap:square;stroke-opacity:0.5;stroke-width:1.5;"/>
   </g>
   <g id="line2d_25">
    <path clip-path="url(#pb89725f171)" d="M 182.592 152.681015 
L 289.728 154.533662 
" style="fill:none;stroke:#000000;stroke-linecap:square;stroke-opacity:0.5;stroke-width:1.5;"/>
   </g>
   <g id="line2d_26">
    <path clip-path="url(#pb89725f171)" d="M 182.592 259.165777 
L 289.728 165.632589 
" style="fill:none;stroke:#000000;stroke-linecap:square;stroke-opacity:0.5;stroke-width:1.5;"/>
   </g>
   <g id="line2d_27">
    <path clip-path="url(#pb89725f171)" d="M 182.592 254.772194 
L 289.728 211.145494 
" style="fill:none;stroke:#000000;stroke-linecap:square;stroke-opacity:0.5;stroke-width:1.5;"/>
   </g>
   <g id="line2d_28">
    <path clip-path="url(#pb89725f171)" d="M 182.592 98.192959 
L 289.728 220.236324 
" style="fill:none;stroke:#000000;stroke-linecap:square;stroke-opacity:0.5;stroke-width:1.5;"/>
   </g>
   <g id="line2d_29">
    <path clip-path="url(#pb89725f171)" d="M 182.592 257.028505 
L 289.728 198.36989 
" style="fill:none;stroke:#000000;stroke-linecap:square;stroke-opacity:0.5;stroke-width:1.5;"/>
   </g>
   <g id="line2d_30">
    <path clip-path="url(#pb89725f171)" d="M 182.592 179.412126 
L 289.728 136.034353 
" style="fill:none;stroke:#000000;stroke-linecap:square;stroke-opacity:0.5;stroke-width:1.5;"/>
   </g>
   <g id="line2d_31">
    <path clip-path="url(#pb89725f171)" d="M 182.592 243.684957 
L 289.728 254.887961 
" style="fill:none;stroke:#000000;stroke-linecap:square;stroke-opacity:0.5;stroke-width:1.5;"/>
   </g>
   <g id="line2d_32">
    <path clip-path="url(#pb89725f171)" d="M 182.592 140.51373 
L 289.728 261.722047 
" style="fill:none;stroke:#000000;stroke-linecap:square;stroke-opacity:0.5;stroke-width:1.5;"/>
   </g>
   <g id="line2d_33">
    <path clip-path="url(#pb89725f171)" d="M 182.592 251.942663 
L 289.728 185.865165 
" style="fill:none;stroke:#000000;stroke-linecap:square;stroke-opacity:0.5;stroke-width:1.5;"/>
   </g>
   <g id="line2d_34">
    <path clip-path="url(#pb89725f171)" d="M 182.592 273.555518 
L 289.728 102.505629 
" style="fill:none;stroke:#000000;stroke-linecap:square;stroke-opacity:0.5;stroke-width:1.5;"/>
   </g>
   <g id="line2d_35">
    <path clip-path="url(#pb89725f171)" d="M 182.592 210.487252 
L 289.728 254.36049 
" style="fill:none;stroke:#000000;stroke-linecap:square;stroke-opacity:0.5;stroke-width:1.5;"/>
   </g>
   <g id="line2d_36">
    <path clip-path="url(#pb89725f171)" d="M 182.592 239.989109 
L 289.728 205.904629 
" style="fill:none;stroke:#000000;stroke-linecap:square;stroke-opacity:0.5;stroke-width:1.5;"/>
   </g>
   <g id="line2d_37">
    <path clip-path="url(#pb89725f171)" d="M 182.592 259.615614 
L 289.728 268.17888 
" style="fill:none;stroke:#000000;stroke-linecap:square;stroke-opacity:0.5;stroke-width:1.5;"/>
   </g>
   <g id="line2d_38">
    <path clip-path="url(#pb89725f171)" d="M 182.592 184.525733 
L 289.728 222.027536 
" style="fill:none;stroke:#000000;stroke-linecap:square;stroke-opacity:0.5;stroke-width:1.5;"/>
   </g>
   <g id="line2d_39">
    <path clip-path="url(#pb89725f171)" d="M 182.592 262.829598 
L 289.728 163.561553 
" style="fill:none;stroke:#000000;stroke-linecap:square;stroke-opacity:0.5;stroke-width:1.5;"/>
   </g>
   <g id="line2d_40">
    <path clip-path="url(#pb89725f171)" d="M 182.592 150.637444 
L 289.728 243.168512 
" style="fill:none;stroke:#000000;stroke-linecap:square;stroke-opacity:0.5;stroke-width:1.5;"/>
   </g>
   <g id="line2d_41">
    <path clip-path="url(#pb89725f171)" d="M 182.592 196.543378 
L 289.728 267.960004 
" style="fill:none;stroke:#000000;stroke-linecap:square;stroke-opacity:0.5;stroke-width:1.5;"/>
   </g>
   <g id="line2d_42">
    <path clip-path="url(#pb89725f171)" d="M 182.592 218.414245 
L 289.728 97.78781 
" style="fill:none;stroke:#000000;stroke-linecap:square;stroke-opacity:0.5;stroke-width:1.5;"/>
   </g>
   <g id="line2d_43">
    <path clip-path="url(#pb89725f171)" d="M 182.592 191.543291 
L 289.728 295.488 
" style="fill:none;stroke:#000000;stroke-linecap:square;stroke-opacity:0.5;stroke-width:1.5;"/>
   </g>
   <g id="line2d_44">
    <path clip-path="url(#pb89725f171)" d="M 182.592 106.445719 
L 289.728 174.650647 
" style="fill:none;stroke:#000000;stroke-linecap:square;stroke-opacity:0.5;stroke-width:1.5;"/>
   </g>
   <g id="line2d_45">
    <path clip-path="url(#pb89725f171)" d="M 182.592 194.950158 
L 289.728 250.277215 
" style="fill:none;stroke:#000000;stroke-linecap:square;stroke-opacity:0.5;stroke-width:1.5;"/>
   </g>
   <g id="line2d_46">
    <path clip-path="url(#pb89725f171)" d="M 182.592 199.035936 
L 289.728 131.129759 
" style="fill:none;stroke:#000000;stroke-linecap:square;stroke-opacity:0.5;stroke-width:1.5;"/>
   </g>
   <g id="line2d_47">
    <path clip-path="url(#pb89725f171)" d="M 182.592 144.559219 
L 289.728 218.940077 
" style="fill:none;stroke:#000000;stroke-linecap:square;stroke-opacity:0.5;stroke-width:1.5;"/>
   </g>
   <g id="line2d_48">
    <path clip-path="url(#pb89725f171)" d="M 182.592 125.450276 
L 289.728 174.19229 
" style="fill:none;stroke:#000000;stroke-linecap:square;stroke-opacity:0.5;stroke-width:1.5;"/>
   </g>
   <g id="line2d_49">
    <path clip-path="url(#pb89725f171)" d="M 182.592 132.297111 
L 289.728 135.757968 
" style="fill:none;stroke:#000000;stroke-linecap:square;stroke-opacity:0.5;stroke-width:1.5;"/>
   </g>
   <g id="line2d_50">
    <path clip-path="url(#pb89725f171)" d="M 182.592 221.611666 
L 289.728 224.579292 
" style="fill:none;stroke:#000000;stroke-linecap:square;stroke-opacity:0.5;stroke-width:1.5;"/>
   </g>
   <g id="line2d_51">
    <path clip-path="url(#pb89725f171)" d="M 182.592 183.717886 
L 289.728 195.544465 
" style="fill:none;stroke:#000000;stroke-linecap:square;stroke-opacity:0.5;stroke-width:1.5;"/>
   </g>
   <g id="line2d_52">
    <path clip-path="url(#pb89725f171)" d="M 182.592 196.794162 
L 289.728 101.376489 
" style="fill:none;stroke:#000000;stroke-linecap:square;stroke-opacity:0.5;stroke-width:1.5;"/>
   </g>
   <g id="line2d_53">
    <path clip-path="url(#pb89725f171)" d="M 182.592 208.962261 
L 289.728 129.487195 
" style="fill:none;stroke:#000000;stroke-linecap:square;stroke-opacity:0.5;stroke-width:1.5;"/>
   </g>
   <g id="line2d_54">
    <path clip-path="url(#pb89725f171)" d="M 182.592 232.931313 
L 289.728 198.794094 
" style="fill:none;stroke:#000000;stroke-linecap:square;stroke-opacity:0.5;stroke-width:1.5;"/>
   </g>
   <g id="line2d_55">
    <path clip-path="url(#pb89725f171)" d="M 182.592 217.981186 
L 289.728 179.000422 
" style="fill:none;stroke:#000000;stroke-linecap:square;stroke-opacity:0.5;stroke-width:1.5;"/>
   </g>
   <g id="line2d_56">
    <path clip-path="url(#pb89725f171)" d="M 182.592 53.568 
L 289.728 133.348326 
" style="fill:none;stroke:#000000;stroke-linecap:square;stroke-opacity:0.5;stroke-width:1.5;"/>
   </g>
   <g id="line2d_57">
    <path clip-path="url(#pb89725f171)" d="M 182.592 136.443856 
L 289.728 102.443316 
" style="fill:none;stroke:#000000;stroke-linecap:square;stroke-opacity:0.5;stroke-width:1.5;"/>
   </g>
   <g id="line2d_58">
    <path clip-path="url(#pb89725f171)" d="M 182.592 73.620148 
L 289.728 156.435641 
" style="fill:none;stroke:#000000;stroke-linecap:square;stroke-opacity:0.5;stroke-width:1.5;"/>
   </g>
   <g id="line2d_59">
    <path clip-path="url(#pb89725f171)" d="M 182.592 178.007982 
L 289.728 158.965007 
" style="fill:none;stroke:#000000;stroke-linecap:square;stroke-opacity:0.5;stroke-width:1.5;"/>
   </g>
   <g id="line2d_60">
    <path clip-path="url(#pb89725f171)" d="M 182.592 217.102981 
L 289.728 199.550688 
" style="fill:none;stroke:#000000;stroke-linecap:square;stroke-opacity:0.5;stroke-width:1.5;"/>
   </g>
   <g id="line2d_61">
    <path clip-path="url(#pb89725f171)" d="M 182.592 200.253477 
L 289.728 177.602136 
" style="fill:none;stroke:#000000;stroke-linecap:square;stroke-opacity:0.5;stroke-width:1.5;"/>
   </g>
   <g id="line2d_62">
    <path clip-path="url(#pb89725f171)" d="M 182.592 191.404304 
L 289.728 110.921224 
" style="fill:none;stroke:#000000;stroke-linecap:square;stroke-opacity:0.5;stroke-width:1.5;"/>
   </g>
   <g id="line2d_63">
    <path clip-path="url(#pb89725f171)" d="M 182.592 282.055386 
L 289.728 161.584201 
" style="fill:none;stroke:#000000;stroke-linecap:square;stroke-opacity:0.5;stroke-width:1.5;"/>
   </g>
   <g id="line2d_64">
    <path clip-path="url(#pb89725f171)" d="M 182.592 154.483508 
L 289.728 230.742155 
" style="fill:none;stroke:#000000;stroke-linecap:square;stroke-opacity:0.5;stroke-width:1.5;"/>
   </g>
   <g id="line2d_65">
    <path clip-path="url(#pb89725f171)" d="M 182.592 185.344914 
L 289.728 147.811084 
" style="fill:none;stroke:#000000;stroke-linecap:square;stroke-opacity:0.5;stroke-width:1.5;"/>
   </g>
   <g id="line2d_66">
    <path clip-path="url(#pb89725f171)" d="M 133.488 196.845989 
L 160.272 196.845989 
" style="fill:none;stroke:#ff7f0e;stroke-linecap:square;"/>
   </g>
   <g id="line2d_67">
    <path clip-path="url(#pb89725f171)" d="M 312.048 187.831407 
L 338.832 187.831407 
" style="fill:none;stroke:#ff7f0e;stroke-linecap:square;"/>
   </g>
   <g id="patch_3">
    <path d="M 57.6 307.584 
L 57.6 41.472 
" style="fill:none;stroke:#000000;stroke-linecap:square;stroke-linejoin:miter;stroke-width:0.8;"/>
   </g>
   <g id="patch_4">
    <path d="M 414.72 307.584 
L 414.72 41.472 
" style="fill:none;stroke:#000000;stroke-linecap:square;stroke-linejoin:miter;stroke-width:0.8;"/>
   </g>
   <g id="patch_5">
    <path d="M 57.6 307.584 
L 414.72 307.584 
" style="fill:none;stroke:#000000;stroke-linecap:square;stroke-linejoin:miter;stroke-width:0.8;"/>
   </g>
   <g id="patch_6">
    <path d="M 57.6 41.472 
L 414.72 41.472 
" style="fill:none;stroke:#000000;stroke-linecap:square;stroke-linejoin:miter;stroke-width:0.8;"/>
   </g>
  </g>
 </g>
 <defs>
  <clipPath id="pb89725f171">
   <rect height="266.112" width="357.12" x="57.6" y="41.472"/>
  </clipPath>
 </defs>
</svg>
